<?xml version="1.0" encoding="utf-8"?>
<!-- Generator: Adobe Illustrator 16.0.0, SVG Export Plug-In . SVG Version: 6.00 Build 0)  -->
<!DOCTYPE svg PUBLIC "-//W3C//DTD SVG 1.1//EN" "http://www.w3.org/Graphics/SVG/1.1/DTD/svg11.dtd">
<svg version="1.1" id="Capa_1" xmlns="http://www.w3.org/2000/svg" xmlns:xlink="http://www.w3.org/1999/xlink" x="0px" y="0px"
	 width="101.57px" height="99.57px" viewBox="0 0 101.57 99.57" enable-background="new 0 0 101.57 99.57" xml:space="preserve">
<rect x="-445.5" y="-453.5" display="none" fill="#231F20" stroke="#FFFFFF" stroke-miterlimit="10" width="1066" height="976"/>
<g>
	<g>
		<g>
			<g>
				<path fill="#E4EA94" d="M9.135,30.103c-4.512-4.515-5.796-11.468-3.188-17.3c0.187-0.423,0.567-0.719,1.02-0.804
					c0.451-0.08,0.917,0.057,1.236,0.387l6.44,6.447l2.553-2.551L10.14,9.223C9.865,8.946,9.716,8.566,9.737,8.176
					c0.018-0.396,0.2-0.76,0.502-1.01c5.355-4.427,13.068-4.736,18.755-0.756c0.745,0.52,1.447,1.107,2.096,1.755
					c6.046,6.056,6.042,15.901-0.011,21.945c-5.334,5.331-13.684,6.07-19.849,1.755C10.486,31.345,9.781,30.75,9.135,30.103z
					 M13.258,8.405l6.89,6.896c0.258,0.261,0.408,0.616,0.408,0.985c-0.003,0.366-0.147,0.722-0.408,0.982l-4.524,4.515
					c-0.542,0.545-1.424,0.541-1.966,0l-5.86-5.862c-1.115,4.307,0.102,9.011,3.308,12.216c0.533,0.536,1.11,1.021,1.72,1.446
					c5.062,3.541,11.909,2.936,16.288-1.439c4.967-4.964,4.97-13.04,0.006-18.008c-0.533-0.534-1.11-1.02-1.718-1.443
					C23.158,5.723,17.543,5.666,13.258,8.405z"/>
			</g>
			<path fill="#E4EA94" d="M25.75,31.507l6.727-6.727c0.26-0.261,0.613-0.409,0.984-0.409c0.369,0.004,0.723,0.144,0.982,0.412
				L84.58,74.954c-1.044,0.133-2.07,0.433-3.033,0.894L33.458,27.735l-4.759,4.753l48.084,48.119
				c-0.459,0.971-0.761,1.998-0.896,3.038l-50.14-50.17C25.203,32.928,25.203,32.049,25.75,31.507z"/>
			<g>
				<path fill="#E4EA94" d="M77.76,93.063c-4.477-4.481-4.468-11.76,0.008-16.235c3.94-3.938,10.119-4.484,14.679-1.293
					c0.549,0.386,1.071,0.821,1.548,1.299c4.476,4.476,4.468,11.759-0.006,16.234c-3.942,3.94-10.122,4.487-14.681,1.296
					C78.758,93.975,78.24,93.539,77.76,93.063z M79.73,78.797c-3.391,3.389-3.391,8.904,0,12.292
					c0.36,0.366,0.755,0.697,1.168,0.985c3.463,2.423,8.136,2.006,11.127-0.974c3.391-3.389,3.391-8.904,0-12.298
					c-0.36-0.366-0.755-0.696-1.168-0.988C87.402,75.399,82.721,75.812,79.73,78.797z"/>
			</g>
			<g>
				<path fill="#E4EA94" d="M82.102,88.726c-2.084-2.087-2.084-5.475,0-7.559c1.829-1.832,4.709-2.084,6.832-0.6
					c0.261,0.178,0.502,0.383,0.727,0.6c2.081,2.086,2.076,5.478-0.008,7.559c-1.838,1.837-4.709,2.089-6.832,0.602
					C82.56,89.147,82.319,88.945,82.102,88.726z M84.067,83.14c-0.993,0.99-0.993,2.619,0,3.615
					c0.999,0.999,2.631,0.985,3.615,0.009c0.999-0.999,1.008-2.625,0.009-3.624c-0.105-0.111-0.228-0.205-0.347-0.294
					C86.325,82.133,84.951,82.26,84.067,83.14z"/>
			</g>
		</g>
		<g>
			<g>
				<path fill="#E4EA94" d="M90.726,31.865c-6.165,4.314-14.518,3.575-19.851-1.755c-6.052-6.044-6.055-15.89-0.008-21.945
					c0.646-0.648,1.352-1.235,2.095-1.755c5.688-3.98,13.401-3.671,18.757,0.756c0.303,0.25,0.48,0.615,0.5,1.01
					c0.02,0.39-0.128,0.77-0.402,1.047l-7.059,7.059l2.555,2.551l6.438-6.447c0.322-0.33,0.788-0.467,1.24-0.387
					c0.449,0.085,0.83,0.38,1.021,0.804c2.603,5.833,1.32,12.786-3.193,17.3C92.174,30.75,91.469,31.345,90.726,31.865z
					 M74.555,8.692c-0.61,0.423-1.186,0.909-1.718,1.443c-4.964,4.968-4.961,13.044,0.009,18.008
					c4.375,4.375,11.224,4.979,16.281,1.439c0.613-0.425,1.191-0.91,1.727-1.446c3.202-3.205,4.417-7.909,3.308-12.216l-5.863,5.862
					c-0.541,0.541-1.421,0.545-1.968,0l-4.52-4.515c-0.264-0.261-0.408-0.616-0.408-0.982c0-0.369,0.147-0.724,0.408-0.985
					l6.89-6.896C84.413,5.666,78.797,5.723,74.555,8.692z"/>
			</g>
			<path fill="#E4EA94" d="M76.205,31.507l-6.729-6.727c-0.255-0.261-0.613-0.409-0.982-0.409c-0.371,0.004-0.724,0.144-0.984,0.412
				L17.375,74.954c1.043,0.133,2.07,0.433,3.039,0.894l48.081-48.113l4.762,4.753L25.175,80.607
				c0.461,0.971,0.762,1.998,0.895,3.038l50.138-50.17C76.749,32.928,76.749,32.049,76.205,31.507z"/>
			<g>
				<path fill="#E4EA94" d="M22.652,94.364c-4.565,3.191-10.739,2.645-14.686-1.296C3.49,88.592,3.49,81.309,7.964,76.833
					c0.474-0.478,0.998-0.913,1.547-1.299c4.563-3.191,10.738-2.645,14.683,1.293c4.474,4.476,4.479,11.754,0.005,16.235
					C23.72,93.539,23.201,93.975,22.652,94.364z M11.105,77.815c-0.416,0.292-0.811,0.622-1.174,0.988
					c-3.388,3.394-3.387,8.909,0.003,12.298c2.989,2.979,7.665,3.396,11.122,0.974c0.415-0.288,0.809-0.619,1.173-0.985
					c3.389-3.388,3.388-8.903-0.003-12.292C19.238,75.812,14.559,75.399,11.105,77.815z"/>
			</g>
			<g>
				<path fill="#E4EA94" d="M19.139,89.327c-2.125,1.487-4.996,1.235-6.836-0.602c-2.082-2.081-2.086-5.473-0.002-7.559
					c0.223-0.217,0.463-0.422,0.721-0.6c2.123-1.484,5.002-1.232,6.837,0.6c2.083,2.084,2.083,5.472,0,7.559
					C19.638,88.945,19.396,89.147,19.139,89.327z M14.615,82.846c-0.122,0.089-0.24,0.183-0.344,0.294
					c-0.999,0.999-0.998,2.625,0.001,3.624c0.986,0.977,2.622,0.99,3.617-0.009c0.999-0.996,0.999-2.625,0.003-3.615
					C17.008,82.26,15.633,82.133,14.615,82.846z"/>
			</g>
		</g>
	</g>
</g>
</svg>
