<?xml version="1.0" encoding="utf-8"?>
<!-- Generator: Adobe Illustrator 16.0.0, SVG Export Plug-In . SVG Version: 6.00 Build 0)  -->
<!DOCTYPE svg PUBLIC "-//W3C//DTD SVG 1.1//EN" "http://www.w3.org/Graphics/SVG/1.1/DTD/svg11.dtd">
<svg version="1.1" id="Layer_1" xmlns="http://www.w3.org/2000/svg" xmlns:xlink="http://www.w3.org/1999/xlink" x="0px" y="0px"
	 width="163.151px" height="68.009px" viewBox="0 0 163.151 68.009" enable-background="new 0 0 163.151 68.009"
	 xml:space="preserve">
<g>
	<g>
		<path fill="#E4EA94" d="M16.376,24.735C6.307,26.51,2.385,31.125,2.385,41.194c0,10.069,3.922,13.3,13.992,11.524
			c10.069-1.775,13.993-6.39,13.993-16.458C30.369,26.191,26.445,22.959,16.376,24.735z M16.376,46.827
			c-6.89,1.215-8.1,0.219-8.1-6.671c0-6.89,1.21-8.315,8.1-9.53c6.891-1.213,8.101-0.216,8.101,6.673
			C24.477,44.188,23.267,45.612,16.376,46.827z"/>
		<path fill="#E4EA94" d="M77.585,41.926c10.068-1.775,13.991-6.39,13.991-16.458V15.233l-5.892-2.643v13.916
			c0,6.891-1.21,8.315-8.099,9.528c-6.89,1.216-8.101,0.219-8.101-6.671V19.129l-5.892-2.644v13.916
			C63.592,40.469,67.516,43.702,77.585,41.926z"/>
		<path fill="#E4EA94" d="M108.333,36.504v-5.892c-6.889,1.216-8.1,0.219-8.1-6.671V13.707l-5.893-2.644v13.916
			C94.341,35.048,98.266,38.28,108.333,36.504z"/>
		<path fill="#E4EA94" d="M120.711,15.912l-4.133,0.729c0.354-3.46,1.868-4.012,7.999-5.093l3.497-0.617l3.683-6.541l-7.18,1.267
			c-9.48,1.672-13.992,4.341-13.992,14.987v2.945l10.126-1.786c5.358-0.945,7.469,0.246,7.975,5.221l-14.786,2.608l-2.947,6.41
			l23.75-4.188v-2.945C134.702,21.708,133.112,13.725,120.711,15.912z"/>
		<path fill="#E4EA94" d="M57.499,42.465c2.411-2.652,3.471-6.393,3.471-11.601c0-10.069-3.922-13.3-13.991-11.525
			C36.91,21.115,32.986,25.73,32.986,35.798c0,10.069,3.924,13.3,13.993,11.524c8.101-1.428,8.101,1.797,8.101,3.727
			c0,5.434-1.225,7.58-8.101,8.792c-5.035,0.889-7.2-0.117-7.862-4.372l-6.131-2.712c0.004,7.194,1.604,15.159,13.993,12.977
			c9.677-1.706,13.991-6.558,13.991-15.724C60.97,47.184,60.207,44.193,57.499,42.465z M46.979,41.431
			c-6.89,1.215-8.101,0.217-8.101-6.672s1.211-8.314,8.101-9.528c6.889-1.215,8.101-0.218,8.101,6.672
			C55.08,38.792,53.868,40.215,46.979,41.431z"/>
		<polygon fill="#E4EA94" points="100.247,1.909 94.341,2.95 94.341,8.854 100.247,7.813 		"/>
	</g>
	<g>
		<g>
			<path fill="#92332F" d="M148.609,55.317c-5.989,0-11.098-4.287-12.144-10.193c-1.188-6.705,3.3-13.125,10.004-14.313
				c0.715-0.127,1.444-0.191,2.166-0.191c5.523,0,10.41,3.72,11.883,9.048c0.085,0.3,0.037,0.623-0.131,0.886
				c-0.166,0.264-0.436,0.445-0.743,0.499l-7.817,1.386l0.5,2.824l7.14-1.264c0.358-0.065,0.726,0.053,0.981,0.312
				s0.368,0.629,0.299,0.987c-0.96,4.991-4.967,8.94-9.969,9.827C150.061,55.252,149.331,55.317,148.609,55.317z M148.636,32.834
				c-0.594,0-1.191,0.052-1.78,0.156c-5.501,0.974-9.183,6.244-8.21,11.746c0.86,4.848,5.051,8.366,9.964,8.366
				c0.593,0,1.192-0.054,1.782-0.159c3.551-0.629,6.491-3.139,7.729-6.457l-6.496,1.15c-0.602,0.108-1.178-0.295-1.284-0.896
				l-0.888-5.006c-0.051-0.29,0.014-0.588,0.184-0.828c0.167-0.241,0.425-0.404,0.714-0.455l7.635-1.354
				C156.441,35.356,152.755,32.834,148.636,32.834z"/>
		</g>
		<path fill="#92332F" d="M139.306,48.461l-1.319-7.451c-0.051-0.29-0.215-0.547-0.455-0.716c-0.241-0.168-0.538-0.235-0.829-0.181
			L81.13,49.958c0.62,0.564,1.152,1.229,1.575,1.971l53.294-9.442l0.934,5.272l-53.295,9.442c-0.141,0.841-0.414,1.646-0.802,2.39
			l55.574-9.845C139.012,49.639,139.414,49.065,139.306,48.461z"/>
		<g>
			<path fill="#92332F" d="M75.72,65.016c-4.432,0-8.21-3.17-8.984-7.539c-0.877-4.958,2.441-9.707,7.4-10.587
				c0.529-0.093,1.068-0.141,1.602-0.141c4.431,0,8.208,3.171,8.983,7.54c0.878,4.958-2.441,9.705-7.399,10.585
				C76.793,64.969,76.253,65.016,75.72,65.016z M75.738,48.963c-0.404,0-0.813,0.037-1.216,0.107
				c-3.755,0.666-6.271,4.264-5.605,8.02c0.586,3.309,3.448,5.711,6.803,5.711c0.405,0,0.813-0.035,1.215-0.107
				c3.756-0.666,6.271-4.264,5.606-8.018C81.954,51.366,79.093,48.963,75.738,48.963z"/>
		</g>
		<g>
			<path fill="#92332F" d="M75.725,60.135c-2.064,0-3.822-1.477-4.182-3.51c-0.408-2.309,1.136-4.52,3.444-4.928
				c0.247-0.045,0.497-0.066,0.745-0.066c2.064,0,3.824,1.477,4.183,3.511c0.41,2.308-1.137,4.517-3.445,4.927
				C76.225,60.113,75.974,60.135,75.725,60.135z M75.732,53.846c-0.118,0-0.239,0.01-0.359,0.031
				c-1.105,0.195-1.845,1.256-1.649,2.361c0.194,1.092,1.256,1.846,2.36,1.65c1.106-0.197,1.847-1.256,1.651-2.36
				C77.562,54.553,76.72,53.846,75.732,53.846z"/>
		</g>
	</g>
</g>
</svg>
