<?xml version="1.0" encoding="utf-8"?>
<!-- Generator: Adobe Illustrator 16.0.0, SVG Export Plug-In . SVG Version: 6.00 Build 0)  -->
<!DOCTYPE svg PUBLIC "-//W3C//DTD SVG 1.1//EN" "http://www.w3.org/Graphics/SVG/1.1/DTD/svg11.dtd">
<svg version="1.1" id="Capa_1" xmlns="http://www.w3.org/2000/svg" xmlns:xlink="http://www.w3.org/1999/xlink" x="0px" y="0px"
	 width="101.57px" height="99.57px" viewBox="0 0 101.57 99.57" enable-background="new 0 0 101.57 99.57" xml:space="preserve">
<rect x="-445.5" y="-453.5" display="none" fill="#231F20" stroke="#FFFFFF" stroke-miterlimit="10" width="1066" height="976"/>
<g>
	<path fill="#113B62" d="M47.32,11.788c-15.333,0-27.763,12.429-27.763,27.762c0,1.173,0.095,2.319,0.237,3.451
		C22.165,64.687,45.518,89.68,45.518,89.68c0.416,0.465,0.814,0.755,1.202,0.963l0.02,0.011l0.778,0.246l0.776-0.246l0.021-0.011
		c0.385-0.208,0.786-0.508,1.202-0.963c0,0,23.018-25.036,25.329-46.728c0.141-1.119,0.231-2.253,0.231-3.406
		C75.078,24.217,62.651,11.788,47.32,11.788z"/>
	<g>
		<g>
			<g>
				<path fill="#E4EA94" d="M32.613,35.071c-1.588-1.589-2.04-4.036-1.122-6.089c0.066-0.149,0.2-0.253,0.359-0.283
					c0.159-0.028,0.323,0.02,0.435,0.136l2.267,2.269l0.898-0.898l-2.483-2.484c-0.097-0.098-0.149-0.231-0.142-0.369
					c0.006-0.139,0.07-0.268,0.177-0.355c1.885-1.558,4.599-1.667,6.601-0.266c0.262,0.183,0.509,0.39,0.738,0.618
					c2.128,2.131,2.126,5.596-0.004,7.724c-1.877,1.876-4.816,2.136-6.986,0.618C33.088,35.508,32.84,35.298,32.613,35.071z
					 M34.064,27.434l2.425,2.427c0.091,0.092,0.144,0.217,0.144,0.347c-0.001,0.129-0.052,0.254-0.144,0.346l-1.592,1.589
					c-0.191,0.192-0.501,0.19-0.692,0l-2.062-2.063c-0.393,1.516,0.036,3.171,1.164,4.299c0.188,0.188,0.391,0.359,0.605,0.509
					c1.782,1.246,4.191,1.033,5.732-0.506c1.748-1.747,1.749-4.589,0.002-6.338c-0.188-0.188-0.391-0.359-0.604-0.508
					C37.548,26.49,35.572,26.47,34.064,27.434z"/>
			</g>
			<path fill="#E4EA94" d="M38.46,35.565l2.368-2.368c0.091-0.092,0.216-0.144,0.346-0.144c0.13,0.001,0.254,0.051,0.346,0.145
				l17.646,17.658c-0.367,0.047-0.729,0.152-1.067,0.314L41.173,34.237l-1.675,1.673l16.923,16.935
				c-0.161,0.342-0.268,0.703-0.315,1.069L38.459,36.257C38.268,36.065,38.268,35.755,38.46,35.565z"/>
			<g>
				<path fill="#E4EA94" d="M56.765,57.229c-1.575-1.577-1.572-4.139,0.003-5.714c1.387-1.386,3.562-1.578,5.166-0.455
					c0.193,0.136,0.377,0.289,0.545,0.457c1.575,1.575,1.572,4.139-0.002,5.714c-1.388,1.387-3.562,1.579-5.167,0.456
					C57.116,57.55,56.934,57.397,56.765,57.229z M57.458,52.208c-1.193,1.192-1.193,3.134,0,4.326
					c0.127,0.129,0.266,0.245,0.411,0.347c1.219,0.853,2.863,0.706,3.916-0.343c1.193-1.192,1.193-3.134,0-4.328
					c-0.127-0.129-0.266-0.245-0.411-0.348C60.158,51.012,58.511,51.157,57.458,52.208z"/>
			</g>
			<g>
				<path fill="#E4EA94" d="M58.293,55.702c-0.733-0.734-0.733-1.927,0-2.66c0.644-0.645,1.657-0.733,2.404-0.211
					c0.092,0.062,0.177,0.135,0.256,0.211c0.732,0.734,0.73,1.928-0.003,2.66c-0.646,0.646-1.657,0.735-2.404,0.212
					C58.454,55.851,58.369,55.78,58.293,55.702z M58.985,53.737c-0.35,0.349-0.35,0.922,0,1.272
					c0.352,0.352,0.926,0.347,1.272,0.003c0.352-0.352,0.354-0.924,0.003-1.275c-0.037-0.039-0.08-0.072-0.122-0.104
					C59.78,53.382,59.296,53.427,58.985,53.737z"/>
			</g>
		</g>
		<g>
			<g>
				<path fill="#E4EA94" d="M61.328,35.691c-2.17,1.519-5.109,1.258-6.986-0.618c-2.13-2.127-2.131-5.592-0.003-7.724
					c0.228-0.228,0.476-0.435,0.737-0.618c2.002-1.401,4.717-1.292,6.602,0.266c0.106,0.088,0.169,0.216,0.176,0.355
					c0.007,0.137-0.045,0.271-0.142,0.369l-2.484,2.484l0.899,0.898l2.266-2.269c0.113-0.116,0.277-0.165,0.437-0.136
					c0.158,0.03,0.292,0.134,0.359,0.283c0.916,2.053,0.465,4.5-1.124,6.089C61.838,35.298,61.59,35.508,61.328,35.691z
					 M55.637,27.535c-0.215,0.149-0.417,0.32-0.604,0.508c-1.747,1.749-1.746,4.591,0.003,6.338c1.54,1.54,3.95,1.752,5.73,0.506
					c0.216-0.149,0.419-0.32,0.607-0.509c1.127-1.128,1.555-2.784,1.164-4.299l-2.063,2.063c-0.19,0.19-0.5,0.192-0.692,0
					l-1.591-1.589c-0.093-0.092-0.144-0.217-0.144-0.346c0-0.13,0.052-0.255,0.144-0.347l2.425-2.427
					C59.107,26.47,57.13,26.49,55.637,27.535z"/>
			</g>
			<path fill="#E4EA94" d="M56.218,35.565l-2.368-2.368c-0.09-0.092-0.216-0.144-0.346-0.144c-0.131,0.001-0.255,0.051-0.347,0.145
				L35.513,50.856c0.367,0.047,0.729,0.152,1.069,0.314l16.922-16.933l1.676,1.673L38.258,52.845
				c0.162,0.342,0.268,0.703,0.315,1.069l17.646-17.657C56.409,36.065,56.409,35.755,56.218,35.565z"/>
			<g>
				<path fill="#E4EA94" d="M37.37,57.687c-1.607,1.123-3.78,0.931-5.168-0.456c-1.575-1.575-1.576-4.139-0.001-5.714
					c0.167-0.168,0.351-0.321,0.544-0.457c1.606-1.123,3.779-0.931,5.167,0.455c1.575,1.575,1.576,4.137,0.002,5.714
					C37.746,57.397,37.563,57.55,37.37,57.687z M33.306,51.863c-0.146,0.103-0.285,0.219-0.413,0.348
					c-1.192,1.194-1.192,3.136,0.001,4.328c1.052,1.049,2.698,1.195,3.915,0.343c0.146-0.102,0.285-0.218,0.413-0.347
					c1.193-1.192,1.192-3.134-0.001-4.326C36.168,51.157,34.522,51.012,33.306,51.863z"/>
			</g>
			<g>
				<path fill="#E4EA94" d="M36.134,55.914c-0.748,0.523-1.758,0.435-2.406-0.212c-0.733-0.732-0.734-1.926-0.001-2.66
					c0.079-0.076,0.163-0.148,0.254-0.211c0.747-0.522,1.76-0.434,2.406,0.211c0.733,0.733,0.733,1.926,0,2.66
					C36.309,55.78,36.224,55.851,36.134,55.914z M34.541,53.633c-0.043,0.031-0.084,0.064-0.121,0.104
					c-0.352,0.352-0.351,0.924,0,1.275c0.347,0.344,0.923,0.349,1.273-0.003c0.352-0.351,0.352-0.924,0.001-1.272
					C35.384,53.427,34.9,53.382,34.541,53.633z"/>
			</g>
		</g>
	</g>
</g>
</svg>
