<?xml version="1.0" encoding="utf-8"?>
<!-- Generator: Adobe Illustrator 16.0.0, SVG Export Plug-In . SVG Version: 6.00 Build 0)  -->
<!DOCTYPE svg PUBLIC "-//W3C//DTD SVG 1.1//EN" "http://www.w3.org/Graphics/SVG/1.1/DTD/svg11.dtd">
<svg version="1.1" id="Layer_1" xmlns="http://www.w3.org/2000/svg" xmlns:xlink="http://www.w3.org/1999/xlink" x="0px" y="0px"
	 width="190px" height="96.511px" viewBox="83.354 13.474 190 96.511" enable-background="new 83.354 13.474 190 96.511"
	 xml:space="preserve">
<g opacity="0.2">
	<path fill="#DAE7EE" d="M178.632,29.189h-2.736c-0.482,0-0.875,0.386-0.875,0.862c0,0.475,0.393,0.863,0.875,0.863h2.736
		c0.48,0,0.873-0.389,0.873-0.863C179.505,29.575,179.113,29.189,178.632,29.189z M178.632,30.142h-2.736
		c-0.058,0-0.103-0.043-0.103-0.09c0-0.053,0.045-0.093,0.103-0.093h2.736c0.056,0,0.103,0.04,0.103,0.093
		C178.735,30.098,178.688,30.142,178.632,30.142z"/>
	<path fill="#DAE7EE" d="M198.023,28.746h-2.74c-0.48,0-0.873,0.388-0.873,0.864c0,0.477,0.393,0.863,0.873,0.863h2.74
		c0.478,0,0.872-0.386,0.872-0.863C198.895,29.134,198.503,28.746,198.023,28.746z M198.023,29.702h-2.74
		c-0.055,0-0.1-0.042-0.1-0.092s0.045-0.092,0.1-0.092h2.74c0.055,0,0.1,0.042,0.1,0.092S198.077,29.702,198.023,29.702z"/>
	<path fill="#DAE7EE" d="M181.888,18.994c-0.647,0-6.47,0.041-10.915,1.447c-5.14,1.625-11.518,6.578-11.786,6.791l-0.937,0.729
		l21.837-1.273L181.888,18.994z"/>
	<path fill="#DAE7EE" d="M200.241,26.653h0.368l0,0h0.5c0.123,0,0.312,0.005,0.535,0.012c0.354,0.012,0.792,0.023,1.236,0.023
		c1.587,0,2.172-0.145,2.321-0.569c0.05-0.138,0.079-0.417-0.278-0.703c-1.398-1.131-4.523-3.401-7.352-4.743l-1.234-0.586
		l0.048,0.075c-0.121-0.045-0.237-0.09-0.35-0.128c-2.64-0.918-12.508-0.942-12.926-0.942l-0.388-0.002v7.588h0.388
		C183.111,26.677,196.596,26.658,200.241,26.653z"/>
	<path fill="#DAE7EE" d="M147.202,45.258c2.158,0,3.916-1.757,3.916-3.917c0-2.157-1.758-3.914-3.916-3.914
		c-2.159,0-3.915,1.756-3.915,3.914C143.287,43.5,145.043,45.258,147.202,45.258z"/>
	<path fill="#DAE7EE" d="M147.202,48.296c3.84,0,6.952-3.115,6.952-6.956c0-3.839-3.112-6.952-6.952-6.952s-6.953,3.113-6.953,6.952
		C140.249,45.181,143.363,48.296,147.202,48.296z M147.202,36.654c2.584,0,4.686,2.105,4.686,4.687c0,2.585-2.102,4.687-4.686,4.687
		c-2.585,0-4.687-2.102-4.687-4.687C142.516,38.758,144.617,36.654,147.202,36.654z"/>
	<path fill="#DAE7EE" d="M204.422,37.427c-2.159,0-3.917,1.756-3.917,3.914c0,2.158,1.758,3.917,3.917,3.917
		c2.157,0,3.915-1.757,3.915-3.917C208.337,39.183,206.579,37.427,204.422,37.427z"/>
	<path fill="#DAE7EE" d="M204.422,34.389c-3.841,0-6.954,3.113-6.954,6.953c0,3.841,3.113,6.955,6.954,6.955
		c3.839,0,6.952-3.113,6.952-6.955C211.374,37.502,208.261,34.389,204.422,34.389z M204.422,46.028
		c-2.585,0-4.688-2.103-4.688-4.687c0-2.583,2.103-4.687,4.688-4.687c2.583,0,4.686,2.104,4.686,4.687
		C209.108,43.926,207.005,46.028,204.422,46.028z"/>
	<path fill="#DAE7EE" d="M221.803,88.937h30.103c0.295,0,0.533-0.24,0.533-0.533v-7.206c0-0.297-0.238-0.535-0.533-0.535h-30.103
		c-0.295,0-0.535,0.238-0.535,0.535v7.206C221.268,88.697,221.508,88.937,221.803,88.937z M222.338,81.73h29.035v6.139h-29.035
		V81.73z"/>
	<path fill="#DAE7EE" d="M221.803,98.904h30.103c0.295,0,0.533-0.239,0.533-0.534v-7.207c0-0.295-0.238-0.532-0.533-0.532h-30.103
		c-0.295,0-0.535,0.237-0.535,0.532v7.207C221.268,98.664,221.508,98.904,221.803,98.904z M222.338,91.698h29.035v6.137h-29.035
		V91.698z"/>
	<rect x="224.557" y="82.929" fill="#DAE7EE" width="24.592" height="1.067"/>
	<rect x="224.557" y="93.158" fill="#DAE7EE" width="24.592" height="1.067"/>
	<g>
		<path fill="#DAE7EE" d="M266.563,101.04h-0.979h-2.293h-6.673V77.516c0-0.007-0.005-0.014-0.005-0.022
			c-0.003-0.057-0.015-0.112-0.033-0.168c-0.003-0.008-0.005-0.014-0.008-0.022c-0.002-0.003-0.002-0.008-0.005-0.011l-2.32-5.035
			h4.506c0.165,0,0.316-0.074,0.417-0.202c0.103-0.13,0.14-0.297,0.1-0.457l-1.065-4.453c-0.06-0.24-0.271-0.409-0.519-0.409
			h-41.661c-0.245,0-0.459,0.168-0.516,0.409l-1.07,4.453c-0.038,0.159,0,0.327,0.1,0.457c0.103,0.128,0.257,0.202,0.419,0.202
			h4.504l-2.318,5.035c0,0.002,0,0.007-0.003,0.011c-0.004,0.008-0.004,0.014-0.007,0.022c-0.021,0.056-0.033,0.112-0.035,0.168
			c0,0.008-0.005,0.015-0.005,0.022v23.524h-5.535v-8.384c0-0.295-0.24-0.535-0.534-0.535h-27.161V71.818
			c0-0.296-0.237-0.537-0.535-0.537h-2.595V51.132h13.245c0.295,0,0.535-0.24,0.535-0.535v-6.231c1.309,0.13,1.695,0.34,1.698,0.34
			l0.521,0.365l0.084-0.631c0.012-0.083,0.264-2.029,0.264-3.109c0-4.061,3.304-7.363,7.363-7.363s7.36,3.302,7.36,7.363
			c0,0.523-0.057,1.054-0.169,1.573l-0.135,0.622l0.613-0.167c0.278-0.079,0.442-0.153,0.545-0.257
			c0.32-0.321,2.59-0.813,4.247-1.175c1.639-0.356,3.188-0.693,3.965-1.023c1.836-0.776,1.808-4.126,1.801-5.226v-0.143
			c0-0.623-0.391-1.095-0.771-1.549c-0.162-0.195-0.328-0.398-0.464-0.611c-0.138-0.22-0.271-1.245-0.381-2.138h0.164l0.036-0.346
			c0.004-0.034,0.09-0.905,0-1.725c-0.098-0.868-0.785-1.949-0.816-1.994l-0.244-0.385l-0.131,0.12
			c-0.709-0.856-2.717-1.049-4.84-1.25c-0.833-0.08-1.623-0.153-2.248-0.267c-1.22-0.222-4.293-1.566-7.547-2.988
			c-2.428-1.061-4.939-2.159-7.229-3.048c-5.529-2.147-22.609-1.845-28.001-0.006c-0.175,0.06-0.354,0.125-0.535,0.193
			c-3.896,0.957-14.251,6.625-15.224,7.16c-1.284,0.199-16.473,2.564-19.459,3.519c-1.214,0.387-2.109,1.004-2.737,1.883
			c-0.006,0.003-0.011,0.011-0.016,0.014c-0.292,0.323-1.498,2.258-1.264,2.882c-0.562,1.215-0.145,3.744,0.107,5.259
			c0.06,0.362,0.126,0.771,0.126,0.889c-0.012,0.034-0.079,0.073-0.251,0.163c-0.168,0.087-0.377,0.195-0.594,0.379
			c-0.172,0.146-0.229,0.363-0.148,0.559c0.297,0.73,3.347,0.864,3.809,0.836c0.807-0.051,4.062,0.434,5.326,0.637l0.79,0.398
			l-0.271-0.871c-0.225-0.724-0.339-1.479-0.339-2.245c0-4.167,3.391-7.558,7.559-7.558c3.982,0,7.231,3.262,7.559,7.588
			c0.06,0.762,0.149,1.594,0.256,2.284c0.187,1.237,0.288,1.304,0.427,1.394l0.175,0.106l0.177-0.062
			c0.794-0.284,1.764-0.417,1.916-0.434c0.103-0.001,0.519-0.003,1.18-0.008v6.285c0,0.295,0.239,0.535,0.534,0.535h13.247v20.149
			h-2.598c-0.295,0-0.533,0.24-0.533,0.537v20.304h-11.241l0.045-0.107l-5.933-2.528l1.168-15.924
			c1.393-0.78,2.346-2.252,2.382-3.953l0.937-5.551l4.748-1.166c0.086-0.021,0.171-0.054,0.25-0.096
			c0.43-0.231,0.781-0.6,0.987-1.045l3.388-7.33c0.525-1.132,0.029-2.48-1.104-3.005c-0.301-0.139-0.619-0.209-0.95-0.209
			c-0.879,0-1.685,0.515-2.056,1.313l-2.975,6.435l-3.045,0.418c-0.165-0.084-0.327-0.178-0.475-0.269
			c0.584-1.023,0.907-2.308,0.907-3.672c0-0.165-0.005-0.332-0.015-0.495h1.876c0.59,0,1.067-0.477,1.067-1.068v-0.798
			c0-0.591-0.478-1.065-1.067-1.065h-2.021l1.536-2.562c0.258-0.427,0.333-0.929,0.212-1.414c-0.121-0.484-0.424-0.892-0.852-1.149
			c-0.426-0.257-0.929-0.333-1.413-0.21c-0.486,0.119-0.894,0.422-1.149,0.852l-1.333,2.22c-0.371-0.136-0.758-0.214-1.158-0.214
			c-2.42,0-4.316,2.593-4.316,5.903c0,0.477,0.041,0.951,0.118,1.41c-2.045,0.48-3.574,2.322-3.574,4.513v8.16
			c0,0.513,0.087,1.002,0.241,1.464l2.012,21.144h-4.359c-0.295,0-0.532,0.237-0.532,0.535v8.384h-9.726
			c0.947-0.681,1.567-1.787,1.567-3.037c0-1.689-1.127-3.118-2.67-3.577v-6.954h5.451c0.295,0,0.534-0.238,0.534-0.533v-9.583h3.184
			v-4.27h-19.395c0.627-0.642,1.016-1.516,1.016-2.483v-3.094c0-1.958-1.593-3.549-3.548-3.549h-1.615v-1.481
			c0-0.295-0.239-0.534-0.532-0.534h-0.808v-3.508c0-0.896-0.468-1.961-2.691-1.961v1.067c1.623,0,1.623,0.582,1.623,0.895v3.508
			h-0.809c-0.294,0-0.532,0.239-0.532,0.534v1.884c-1.136,0.592-1.914,1.78-1.914,3.146v3.095c0,0.966,0.39,1.841,1.016,2.483
			H96.371v4.269h3.183v9.583c0,0.295,0.238,0.535,0.534,0.535h5.452v6.952c-1.542,0.461-2.67,1.888-2.67,3.579
			c0,1.248,0.62,2.354,1.566,3.035H93.415h-2.204h-1.067h-1.234c0.391,1.536,0.806,3.062,1.272,4.567h176.344
			c0.467-1.505,0.882-3.031,1.272-4.567H266.563z M113.838,63.01h1.616v0.949h-1.049h-0.567V63.01z M111.925,67.509
			c0-1.367,1.111-2.48,2.48-2.48h1.583h2.147c1.367,0,2.48,1.113,2.48,2.48v3.094c0,1.37-1.113,2.483-2.48,2.483h-3.73
			c-1.369,0-2.48-1.113-2.48-2.483V67.509z M100.621,86.406v-9.049h35.191v9.049H100.621z M106.607,100.673
			c-1.471,0-2.67-1.196-2.67-2.668c0-1.475,1.199-2.669,2.67-2.669s2.67,1.196,2.67,2.669
			C109.277,99.477,108.077,100.673,106.607,100.673z M108.779,101.04c0.944-0.681,1.565-1.784,1.565-3.035
			c0-1.691-1.128-3.118-2.669-3.579v-6.952h21.085v6.952c-1.541,0.461-2.67,1.888-2.67,3.579c0,1.251,0.621,2.354,1.566,3.035
			H108.779z M129.826,100.673c-1.473,0-2.669-1.198-2.669-2.668c0-1.475,1.196-2.669,2.669-2.669c1.472,0,2.67,1.194,2.67,2.669
			C132.496,99.477,131.298,100.673,129.826,100.673z M220.489,29.251c0.047,0.439,0.037,0.908,0.023,1.216h-0.913l-0.276-1.843
			l0.699-0.636C220.214,28.356,220.443,28.862,220.489,29.251z M134.438,40.177c-0.037,0.21-0.268,0.443-0.477,0.483l-1.998,0.37
			c-0.014-0.177-0.057-0.445-0.132-0.899c-0.044-0.254-0.092-0.553-0.142-0.873h2.682c0.066,0,0.118,0.021,0.152,0.061
			c0.033,0.039,0.044,0.095,0.033,0.16L134.438,40.177z M135.343,33.795c-0.361,0.025-0.829,0.059-1.229,0.04
			c-0.547-0.024-1.379,0.254-2.04,0.477c-0.093,0.033-0.187,0.063-0.273,0.092c0.218-0.547,0.713-1.452,0.987-1.758
			c0.026-0.021,0.3-0.188,1.819-0.188c1.007,0,2.021,0.075,2.036,0.076c0.028,0.001,0.052,0.005,0.07,0.008
			c-0.005,0.016-0.011,0.03-0.021,0.05l-0.137,0.274c-0.015,0.03-0.031,0.062-0.047,0.094l-0.002-0.001
			c-0.129,0.256-0.24,0.486-0.343,0.699c-0.038,0.076-0.104,0.12-0.143,0.12C135.906,33.761,135.66,33.773,135.343,33.795z
			 M155.371,40.614c-0.51-4.55-4.017-7.939-8.294-7.939c-3.26,0-6.087,1.884-7.453,4.619c-0.42,0.038-1.433,0.108-2.335-0.019
			c-1.106-0.161-1.263-1.066-1.229-1.372c0.005-0.06,0.075-0.409,0.798-1.906c0-0.002,0.001-0.004,0.001-0.004
			c0.071-0.151,0.254-0.515,0.387-0.781l0.138-0.276c0.146-0.29,0.153-0.573,0.025-0.796c-0.091-0.158-0.289-0.349-0.712-0.375
			c-0.043-0.002-1.052-0.077-2.09-0.077c-0.355,0-0.654,0.008-0.908,0.025c0.421-0.315,0.92-0.568,1.516-0.757
			c2.703-0.862,16.182-2.996,18.924-3.425c0.188,0.315,0.706,0.431,1.786,0.396c0.001,0,0.003,0,0.006,0
			c0.11-0.002,0.226-0.007,0.349-0.014l0.109-0.003l0.089-0.063c0.004-0.004,0.023-0.016,0.06-0.041
			c0.001-0.001,0.003-0.004,0.003-0.004c0.021-0.013,0.047-0.031,0.076-0.05c0.011-0.009,0.02-0.013,0.03-0.02
			c0.002-0.004,0.006-0.006,0.011-0.008c0.039-0.027,0.084-0.057,0.137-0.09c0.007-0.006,0.012-0.011,0.018-0.013
			c0.022-0.014,0.045-0.03,0.07-0.048c0.006-0.002,0.013-0.007,0.02-0.012c1.351-0.909,5.717-3.777,9.741-5.816
			c0.003-0.004,0.007-0.004,0.012-0.007c0.089-0.044,0.179-0.088,0.267-0.133c0.008-0.003,0.016-0.008,0.024-0.013
			c0.085-0.042,0.168-0.082,0.251-0.124c0.014-0.007,0.025-0.013,0.037-0.018c0.08-0.038,0.158-0.076,0.235-0.114
			c0.018-0.008,0.036-0.017,0.052-0.025c0.071-0.034,0.141-0.067,0.213-0.101c0.023-0.012,0.047-0.024,0.07-0.036
			c0.064-0.028,0.129-0.058,0.193-0.088c0.028-0.014,0.059-0.028,0.087-0.042c0.052-0.022,0.102-0.046,0.155-0.07
			c0.042-0.02,0.084-0.039,0.125-0.057c0.031-0.013,0.062-0.027,0.092-0.042c0.504-0.224,0.993-0.428,1.46-0.603
			c0.181-0.07,0.359-0.133,0.534-0.193c5.294-1.808,22.051-2.11,27.473-0.007c2.276,0.885,4.778,1.98,7.197,3.038
			c3.441,1.503,6.412,2.803,7.718,3.041c0.658,0.119,1.462,0.194,2.313,0.273c1.736,0.164,3.898,0.369,4.344,1.001l-0.992,0.905
			l0.381,2.579c0.151,1.042,0.273,1.901,0.361,2.558c0.08,0.597,0.005,1.032-0.222,1.292c-0.275,0.314-0.751,0.351-1.084,0.351
			c-0.609,0-6.498,0.507-7.623,0.603c-1.481-1.548-3.564-2.515-5.872-2.515c-4.074,0-7.456,3.006-8.043,6.917L155.371,40.614z
			 M159.835,50.064v-3.381h33.608v3.381h-13.247h-7.114H159.835z M179.663,53.49v15.546h-6.047V53.49H179.663z M170.484,72.35
			h12.311V89.36h-12.311V72.35z M155.538,48.071c0.109-0.183,0.284-0.312,0.492-0.365c0.208-0.05,0.423-0.018,0.606,0.09
			c0.183,0.11,0.313,0.285,0.365,0.492c0.051,0.207,0.02,0.422-0.092,0.606l-1.542,2.573c-0.326-0.495-0.712-0.902-1.137-1.218
			L155.538,48.071z M152.133,50.598c1.242,0,2.301,0.987,2.849,2.474h3.33v0.798h-2.354v-0.156h-6.866
			C149.547,51.876,150.721,50.598,152.133,50.598z M145.651,70.738L145.651,70.738c-0.142-0.382-0.22-0.794-0.22-1.222v-8.16h-0.003
			c0-1.967,1.6-3.567,3.565-3.567h0.29c-0.254-0.693-0.4-1.495-0.4-2.356c0-0.221,0.013-0.438,0.03-0.65h6.434
			c0.02,0.213,0.038,0.429,0.038,0.65c0,1.596-0.499,2.982-1.277,3.858c0.416,0.583,1.73,1.184,1.73,1.184l3.948-0.541l3.22-6.964
			c0.202-0.438,0.634-0.694,1.086-0.694c0.168,0,0.339,0.035,0.502,0.111c0.601,0.278,0.862,0.988,0.585,1.587l-3.391,7.33
			c-0.109,0.236-0.291,0.429-0.521,0.553l-5.43,1.332l-1.067,6.328c0,1.965-1.6,3.566-3.566,3.566h-2.21
			c-1.534,0-2.84-0.975-3.343-2.335L145.651,70.738z M210.49,100.673h-67.701v-7.484h27.161h13.377h27.163V100.673z M215.636,71.19
			l0.809-3.385h40.819l0.811,3.385h-4.661h-33.118H215.636z M255.549,100.673h-37.39V78.05h37.39V100.673z"/>
	</g>
</g>
</svg>
