<?xml version="1.0" encoding="utf-8"?>
<!-- Generator: Adobe Illustrator 16.0.0, SVG Export Plug-In . SVG Version: 6.00 Build 0)  -->
<!DOCTYPE svg PUBLIC "-//W3C//DTD SVG 1.1//EN" "http://www.w3.org/Graphics/SVG/1.1/DTD/svg11.dtd">
<svg version="1.1" id="Capa_1" xmlns="http://www.w3.org/2000/svg" xmlns:xlink="http://www.w3.org/1999/xlink" x="0px" y="0px"
	 width="101.57px" height="99.57px" viewBox="0 0 101.57 99.57" enable-background="new 0 0 101.57 99.57" xml:space="preserve">
<rect x="-445.5" y="-453.5" display="none" fill="#231F20" stroke="#FFFFFF" stroke-miterlimit="10" width="1066" height="976"/>
<g>
	<g>
		<g>
			<g>
				<path fill="#DAE7EE" d="M90.726,31.865c-6.165,4.314-14.518,3.575-19.851-1.755c-6.052-6.044-6.055-15.89-0.008-21.945
					c0.646-0.648,1.352-1.235,2.095-1.755c5.688-3.98,13.401-3.671,18.757,0.756c0.303,0.25,0.48,0.615,0.5,1.01
					c0.02,0.39-0.128,0.77-0.402,1.047l-7.059,7.059l2.555,2.551l6.438-6.447c0.322-0.33,0.788-0.467,1.24-0.387
					c0.449,0.085,0.83,0.38,1.021,0.804c2.603,5.833,1.32,12.786-3.193,17.3C92.174,30.75,91.469,31.345,90.726,31.865z
					 M74.555,8.692c-0.61,0.423-1.186,0.909-1.718,1.443c-4.964,4.968-4.961,13.044,0.009,18.008
					c4.375,4.375,11.224,4.979,16.281,1.439c0.613-0.425,1.191-0.91,1.727-1.446c3.202-3.205,4.417-7.909,3.308-12.216l-5.863,5.862
					c-0.541,0.541-1.421,0.545-1.968,0l-4.52-4.515c-0.264-0.261-0.408-0.616-0.408-0.982c0-0.369,0.147-0.724,0.408-0.985
					l6.89-6.896C84.413,5.666,78.797,5.723,74.555,8.692z"/>
			</g>
			<path fill="#DAE7EE" d="M76.205,31.507l-6.729-6.727c-0.255-0.261-0.613-0.409-0.982-0.409c-0.371,0.004-0.724,0.144-0.984,0.412
				L17.375,74.954c1.043,0.133,2.07,0.433,3.039,0.894l48.081-48.113l4.762,4.753L25.175,80.607
				c0.461,0.971,0.762,1.998,0.895,3.038l50.138-50.17C76.749,32.928,76.749,32.049,76.205,31.507z"/>
			<g>
				<path fill="#DAE7EE" d="M22.652,94.364c-4.565,3.191-10.739,2.645-14.686-1.296C3.49,88.592,3.49,81.309,7.964,76.833
					c0.474-0.478,0.998-0.913,1.547-1.299c4.563-3.191,10.738-2.645,14.683,1.293c4.474,4.476,4.479,11.754,0.005,16.235
					C23.72,93.539,23.201,93.975,22.652,94.364z M11.105,77.815c-0.416,0.292-0.811,0.622-1.174,0.988
					c-3.388,3.394-3.387,8.909,0.003,12.298c2.989,2.979,7.665,3.396,11.122,0.974c0.415-0.288,0.809-0.619,1.173-0.985
					c3.389-3.388,3.388-8.903-0.003-12.292C19.238,75.812,14.559,75.399,11.105,77.815z"/>
			</g>
			<g>
				<path fill="#DAE7EE" d="M19.139,89.327c-2.125,1.487-4.996,1.235-6.836-0.602c-2.082-2.081-2.086-5.473-0.002-7.559
					c0.223-0.217,0.463-0.422,0.721-0.6c2.123-1.484,5.002-1.232,6.837,0.6c2.083,2.084,2.083,5.472,0,7.559
					C19.638,88.945,19.396,89.147,19.139,89.327z M14.615,82.846c-0.122,0.089-0.24,0.183-0.344,0.294
					c-0.999,0.999-0.998,2.625,0.001,3.624c0.986,0.977,2.622,0.99,3.617-0.009c0.999-0.996,0.999-2.625,0.003-3.615
					C17.008,82.26,15.633,82.133,14.615,82.846z"/>
			</g>
		</g>
	</g>
</g>
<g>
	<g>
		<g>
			<g>
				<path fill="#DAE7EE" d="M9.135,30.103c-4.514-4.515-5.796-11.468-3.193-17.3c0.191-0.423,0.572-0.719,1.021-0.804
					c0.452-0.08,0.918,0.057,1.24,0.387l6.438,6.447l2.555-2.551l-7.059-7.059C9.863,8.946,9.715,8.566,9.735,8.176
					c0.02-0.396,0.197-0.76,0.5-1.01C15.59,2.739,23.303,2.429,28.991,6.41c0.743,0.52,1.448,1.107,2.095,1.755
					c6.047,6.056,6.044,15.901-0.008,21.945c-5.333,5.331-13.686,6.07-19.851,1.755C10.485,31.345,9.78,30.75,9.135,30.103z
					 M13.253,8.405l6.89,6.896c0.261,0.261,0.408,0.616,0.408,0.985c0,0.366-0.145,0.722-0.408,0.982l-4.52,4.515
					c-0.547,0.545-1.427,0.541-1.968,0L7.792,15.92c-1.109,4.307,0.105,9.011,3.308,12.216c0.535,0.536,1.113,1.021,1.727,1.446
					c5.058,3.541,11.906,2.936,16.281-1.439c4.97-4.964,4.973-13.04,0.009-18.008c-0.532-0.534-1.107-1.02-1.718-1.443
					C23.156,5.723,17.54,5.666,13.253,8.405z"/>
			</g>
			<path fill="#DAE7EE" d="M25.748,31.507l6.729-6.727c0.255-0.261,0.613-0.409,0.982-0.409c0.371,0.004,0.724,0.144,0.984,0.412
				l50.135,50.171c-1.043,0.133-2.07,0.433-3.039,0.894l-48.08-48.113l-4.762,4.753l48.081,48.119
				c-0.461,0.971-0.762,1.998-0.896,3.038l-50.138-50.17C25.204,32.928,25.204,32.049,25.748,31.507z"/>
			<g>
				<path fill="#DAE7EE" d="M77.755,93.063c-4.474-4.481-4.469-11.76,0.005-16.235c3.945-3.938,10.12-4.484,14.684-1.293
					c0.549,0.386,1.072,0.821,1.547,1.299c4.474,4.476,4.473,11.759-0.003,16.234c-3.946,3.94-10.12,4.487-14.686,1.296
					C78.752,93.975,78.234,93.539,77.755,93.063z M79.728,78.797c-3.391,3.389-3.392,8.904-0.003,12.292
					c0.363,0.366,0.758,0.697,1.173,0.985c3.457,2.423,8.133,2.006,11.122-0.974c3.39-3.389,3.391-8.904,0.003-12.298
					c-0.363-0.366-0.758-0.696-1.174-0.988C87.395,75.399,82.716,75.812,79.728,78.797z"/>
			</g>
			<g>
				<path fill="#DAE7EE" d="M82.095,88.726c-2.083-2.087-2.083-5.475,0-7.559c1.835-1.832,4.714-2.084,6.837-0.6
					c0.258,0.178,0.498,0.383,0.721,0.6c2.084,2.086,2.08,5.478-0.002,7.559c-1.84,1.837-4.711,2.089-6.836,0.602
					C82.558,89.147,82.315,88.945,82.095,88.726z M84.062,83.14c-0.996,0.99-0.996,2.619,0.003,3.615
					c0.995,0.999,2.631,0.985,3.617,0.009c0.999-0.999,1-2.625,0.001-3.624c-0.104-0.111-0.222-0.205-0.344-0.294
					C86.321,82.133,84.946,82.26,84.062,83.14z"/>
			</g>
		</g>
	</g>
</g>
</svg>
